<svg display="none" xmlns="http://www.w3.org/2000/svg">
	
	<symbol id="basketball" viewBox="0 0 478.125 478.125">
		<g>
		<path d="M239.062,0C107.1,0,0,107.1,0,239.062c0,13.388,1.913,24.862,3.825,38.25c0,3.825,1.912,5.737,1.912,9.562
			c22.95,109.013,118.575,191.25,235.237,191.25c130.051,0,237.15-107.1,237.15-239.062C478.125,107.1,371.025,0,239.062,0z
			M248.625,47.812c0-9.562,0-19.125-1.912-28.688c95.625,3.825,175.949,68.85,202.725,156.825
			c-45.9,7.65-86.062,26.775-118.575,55.462c-26.774-36.337-61.2-68.85-99.45-93.712C242.888,109.013,248.625,78.413,248.625,47.812z
			M227.587,19.125c1.913,9.562,1.913,19.125,1.913,28.688c0,26.775-5.737,53.55-15.3,78.413c-38.25-22.95-82.238-38.25-128.138-45.9
			C122.4,45.9,172.125,22.95,227.587,19.125z M19.125,239.062c0-53.55,19.125-103.275,51.638-141.525
			c49.725,5.737,95.625,21.038,137.7,45.9C174.038,214.2,103.275,262.013,22.95,267.75C19.125,258.188,19.125,248.625,19.125,239.062
			z M239.062,459c-105.188,0-193.163-74.588-214.2-172.125c87.975-5.737,162.562-57.375,198.9-131.962
			c36.337,24.862,66.938,53.55,93.712,89.887c-42.074,42.075-68.85,101.362-68.85,166.388c0,15.3,1.912,32.513,3.825,47.812
			C248.625,459,244.8,459,239.062,459z M271.575,457.088c-3.825-15.301-3.825-30.601-3.825-45.9
			c0-59.287,22.95-110.925,59.287-151.088c26.775,43.988,45.9,93.713,51.638,147.263C349.987,432.225,313.65,449.438,271.575,457.088
			z M397.8,392.062c-7.649-53.55-26.774-101.362-55.462-145.35c30.6-26.775,68.85-45.9,112.837-53.55
			c3.825,15.3,3.825,30.6,3.825,45.9C459,298.35,436.05,351.9,397.8,392.062z"/>
		</g>
	</symbol>

	<symbol id="search" viewBox="0 0 32 32">
		<path d="M27.414,24.586l-5.077-5.077C23.386,17.928,24,16.035,24,14c0-5.514-4.486-10-10-10S4,8.486,4,14  s4.486,10,10,10c2.035,0,3.928-0.614,5.509-1.663l5.077,5.077c0.78,0.781,2.048,0.781,2.828,0  C28.195,26.633,28.195,25.367,27.414,24.586z M7,14c0-3.86,3.14-7,7-7s7,3.14,7,7s-3.14,7-7,7S7,17.86,7,14z" id="XMLID_223_"/>
	</symbol>
	
	<symbol id="google" viewBox="0 0 478.185 478.185">
		<g>
		<path id="Google_3_" d="M395.821,0H266.318c-33.83,0-76.506,4.981-112.309,34.428c-27.016,23.291-40.166,55.228-40.166,84.117
		c0,48.952,37.675,98.621,104.24,98.621c6.296,0,13.11-0.697,20.103-1.335c-3.128,7.471-6.316,13.767-6.316,24.506
		c0,19.366,10.061,31.32,18.848,42.616c-28.212,1.952-80.989,5.061-119.979,28.929c-37.098,21.916-48.374,53.853-48.374,76.586
		c0,46.402,44.011,89.716,135.062,89.716c108.005,0,165.166-59.671,165.166-118.704c0-43.254-25.024-64.632-52.658-87.803
		l-22.733-17.573c-6.953-5.658-16.258-13.15-16.258-26.957c0-13.907,9.324-22.613,17.592-30.782
		c26.279-20.72,52.758-42.696,52.758-89.038c0-47.737-30.204-72.84-44.609-84.755h38.97L395.821,0z M340.533,383.946
		c0,38.851-31.977,67.919-92.286,67.919c-67.302,0-110.615-32.097-110.615-76.586c0-44.669,40.246-59.671,54.033-64.692
		c26.419-8.826,60.348-9.982,66.007-9.982c6.236,0,9.344,0,14.464,0.578C319.832,334.974,340.533,352.029,340.533,383.946z
		 M290.326,181.922c-10.101,9.962-27.016,17.533-42.836,17.533c-53.973,0-78.439-69.653-78.439-111.691
		c0-16.297,3.168-33.213,13.787-46.422c10.061-12.552,27.694-20.681,43.991-20.681c52.04,0,79.136,70.27,79.136,115.437
		C305.966,147.414,304.81,167.457,290.326,181.922z"/>
		</g>
	</symbol>

	<symbol id="facebook" viewBox="0 0 512 512">
		<g>
		<path d="M308.3,508.5c-2.5,0.1-4.1,0.3-5.7,0.3c-34.2,0-68.3-0.1-102.5,0.1c-4.8,0-6.1-1.3-6.1-6.1c0.1-79.6,0.1-159.3,0.1-238.9   c0-2.1,0-4.2,0-6.9c-18.6,0-36.7,0-55.1,0c0-28.4,0-56.3,0-85c1.9,0,3.7,0,5.4,0c15,0,30-0.1,45,0.1c3.8,0,4.8-1.1,4.8-4.8   c-0.2-22.3-0.2-44.7,0-67c0.1-15.6,2.6-30.8,9.8-44.9c10.3-19.9,26.6-32.8,47.2-40.8c16.8-6.6,34.5-9,52.3-9.3   c29-0.4,58-0.2,87-0.3c2.7,0,4.9-0.1,4.9,3.7c-0.1,27.5-0.1,55-0.1,82.5c0,0.3-0.1,0.6-0.5,1.9c-1.7,0-3.6,0-5.5,0   c-18,0-36-0.1-54,0c-10.4,0-18.8,4.2-24.1,13.3c-1.6,2.7-2.6,6.2-2.6,9.4c-0.3,17,0,34-0.2,51c0,4,1.2,5.1,5.1,5.1   c25-0.2,50-0.1,75-0.1c2,0,3.9,0,7.3,0c-3.5,28.6-6.9,56.6-10.4,84.9c-26,0-51.3,0-77.1,0C308.3,340.8,308.3,424.4,308.3,508.5z"/>
		</g>
	</symbol>

	<symbol id="twitter" viewBox="0 0 512 512">
		<g>
		<path d="M4,440.5c55.6,5,105.7-9,151.3-43.2c-47.7-4.2-79.6-28-97.4-72.6c15.6,1.9,30.2,2.4,45.7-1.8   c-51.4-16-78.8-49.6-82.5-103.8c15.4,7.2,29.9,12.4,47,12.6c-30.5-22.9-46.1-52.6-45.5-90c0.3-17.2,4.9-33.4,14-48.7   C93.1,159.1,164,195.7,251.3,201.8c-0.5-3.8-0.8-6.8-1.2-9.9c-7.2-55.4,28.8-105.8,83.8-116.3c34.5-6.6,65,2.5,90.8,26.3   c4,3.6,7.4,4.4,12.4,3.1c20.1-5.1,39.2-12.5,57.7-22.5c-7.1,23.4-21.7,41-41.5,55.8c4.5-0.8,9.1-1.4,13.6-2.3   c4.7-1,9.4-2.1,14.1-3.4c4.5-1.2,8.9-2.6,13.3-4.1c4.5-1.5,9-3.2,14.3-4.1c-2.6,3.6-5.1,7.4-7.9,10.9c-11.6,14.7-25,27.6-39.7,39.1   c-1.5,1.2-2.8,3.8-2.7,5.6c0.8,35.5-4.2,70.1-15.7,103.7c-22.6,66.2-62,119.8-121.1,158.1c-29.2,18.9-61.1,31.3-95.2,38.5   c-33.8,7.1-67.8,8.4-101.9,4.4c-34.2-4-66.7-14.1-97.3-29.9c-8.1-4.1-15.9-8.7-23.8-13.1C3.6,441.3,3.8,440.9,4,440.5z"/>
		</g>
	</symbol>
	
	<symbol id="heart" viewBox="0 0 32 32">
		<g data-name="Layer 54" id="Layer_54">
		<path class="cls-1" d="M16,28.72a3,3,0,0,1-2.13-.88L3.57,17.54a8.72,8.72,0,0,1-2.52-6.25,8.06,8.06,0,0,1,8.14-8A8.06,8.06,0,0,1,15,5.68l1,1,.82-.82h0a8.39,8.39,0,0,1,11-.89,8.25,8.25,0,0,1,.81,12.36L18.13,27.84A3,3,0,0,1,16,28.72ZM9.15,5.28A6.12,6.12,0,0,0,4.89,7a6,6,0,0,0-1.84,4.33A6.72,6.72,0,0,0,5,16.13l10.3,10.3a1,1,0,0,0,1.42,0L27.23,15.91A6.25,6.25,0,0,0,29,11.11a6.18,6.18,0,0,0-2.43-4.55,6.37,6.37,0,0,0-8.37.71L16.71,8.8a1,1,0,0,1-1.42,0l-1.7-1.7a6.28,6.28,0,0,0-4.4-1.82Z"/>
		</g>
	</symbol>

</svg>